<svg version="1.1" xmlns="http://www.w3.org/2000/svg" xmlns:xlink="http://www.w3.org/1999/xlink" width="1257" height="596"><defs></defs><g><g transform="translate(-14,-94) scale(1,1)"><rect fill="#C0C0C0" stroke="none" x="353" y="367" width="422" height="184" opacity="0.2"></rect></g><g transform="translate(-14,-94) scale(1,1)"><rect fill="#ffffff" stroke="none" x="346" y="360" width="422" height="184"></rect></g><g transform="translate(-14,-94) scale(1,1)"><path fill="none" stroke="#000000" d="M 346 360 L 768 360 L 768 544 L 346 544 L 346 360 Z Z" stroke-miterlimit="10"></path></g><g transform="translate(-14,-94) scale(1,1)"><rect fill="#ffffff" stroke="none" x="336" y="367" width="20" height="10"></rect></g><g transform="translate(-14,-94) scale(1,1)"><path fill="none" stroke="#000000" d="M 336 367 L 356 367 L 356 377 L 336 377 L 336 367 Z Z" stroke-miterlimit="10"></path></g><g transform="translate(-14,-94) scale(1,1)"><rect fill="#ffffff" stroke="none" x="336" y="387" width="20" height="10"></rect></g><g transform="translate(-14,-94) scale(1,1)"><path fill="none" stroke="#000000" d="M 336 387 L 356 387 L 356 397 L 336 397 L 336 387 Z Z" stroke-miterlimit="10"></path></g><g transform="translate(-14,-94) scale(1,1)"><path fill="none" stroke="#000000" d="M 356 385 L 768 385" stroke-miterlimit="10"></path></g><g transform="translate(-14,-94) scale(1,1)"><path fill="none" stroke="#000000" d="M 356 395 L 768 395" stroke-miterlimit="10"></path></g><g transform="translate(-14,-94) scale(1,1)"><path fill="none" stroke="#000000" d="M 356 433 L 768 433" stroke-miterlimit="10"></path></g><g transform="translate(-14,-94) scale(1,1)"><g><path fill="none" stroke="none"></path><text fill="#000000" stroke="none" font-family="Arial" font-size="13px" font-style="normal" font-weight="bold" text-decoration="none" x="522.5" y="379.5">DomainGraph</text></g></g><g transform="translate(-14,-94) scale(1,1)"><g><path fill="none" stroke="none"></path><text fill="#000000" stroke="none" font-family="Arial" font-size="13px" font-style="normal" font-weight="normal" text-decoration="none" x="361" y="412.5">+showSubgraph(concepts: []&lt;Artifact&gt;)()</text></g></g><g transform="translate(-14,-94) scale(1,1)"><g><path fill="none" stroke="none"></path><text fill="#000000" stroke="none" font-family="Arial" font-size="13px" font-style="normal" font-weight="normal" text-decoration="none" x="361" y="427.5">+showGraph(g: Graph)()</text></g></g><g transform="translate(-14,-94) scale(1,1)"><rect fill="#C0C0C0" stroke="none" x="41" y="367" width="254" height="176" opacity="0.2"></rect></g><g transform="translate(-14,-94) scale(1,1)"><rect fill="#ffffff" stroke="none" x="34" y="360" width="254" height="176"></rect></g><g transform="translate(-14,-94) scale(1,1)"><path fill="none" stroke="#000000" d="M 34 360 L 288 360 L 288 536 L 34 536 L 34 360 Z Z" stroke-miterlimit="10"></path></g><g transform="translate(-14,-94) scale(1,1)"><rect fill="#ffffff" stroke="none" x="24" y="367" width="20" height="10"></rect></g><g transform="translate(-14,-94) scale(1,1)"><path fill="none" stroke="#000000" d="M 24 367 L 44 367 L 44 377 L 24 377 L 24 367 Z Z" stroke-miterlimit="10"></path></g><g transform="translate(-14,-94) scale(1,1)"><rect fill="#ffffff" stroke="none" x="24" y="387" width="20" height="10"></rect></g><g transform="translate(-14,-94) scale(1,1)"><path fill="none" stroke="#000000" d="M 24 387 L 44 387 L 44 397 L 24 397 L 24 387 Z Z" stroke-miterlimit="10"></path></g><g transform="translate(-14,-94) scale(1,1)"><path fill="none" stroke="#000000" d="M 44 385 L 288 385" stroke-miterlimit="10"></path></g><g transform="translate(-14,-94) scale(1,1)"><path fill="none" stroke="#000000" d="M 44 408 L 288 408" stroke-miterlimit="10"></path></g><g transform="translate(-14,-94) scale(1,1)"><path fill="none" stroke="#000000" d="M 44 418 L 288 418" stroke-miterlimit="10"></path></g><g transform="translate(-14,-94) scale(1,1)"><g><path fill="none" stroke="none"></path><text fill="#000000" stroke="none" font-family="Arial" font-size="13px" font-style="normal" font-weight="bold" text-decoration="none" x="120" y="379.5">DomainSelector</text></g></g><g transform="translate(-14,-94) scale(1,1)"><g><path fill="none" stroke="none"></path><text fill="#000000" stroke="none" font-family="Arial" font-size="13px" font-style="normal" font-weight="normal" text-decoration="none" x="49" y="402.5">+currentQuery</text></g></g><g transform="translate(-14,-94) scale(1,1)"><rect fill="#C0C0C0" stroke="none" x="1129" y="295" width="137" height="44" opacity="0.2"></rect></g><g transform="translate(-14,-94) scale(1,1)"><rect fill="#ffffff" stroke="none" x="1122" y="288" width="137" height="44"></rect></g><g transform="translate(-14,-94) scale(1,1)"><path fill="none" stroke="#000000" d="M 1122 288 L 1259 288 L 1259 332 L 1122 332 L 1122 288 Z Z" stroke-miterlimit="10"></path></g><g transform="translate(-14,-94) scale(1,1)"><rect fill="#ffffff" stroke="none" x="1112" y="295" width="20" height="10"></rect></g><g transform="translate(-14,-94) scale(1,1)"><path fill="none" stroke="#000000" d="M 1112 295 L 1132 295 L 1132 305 L 1112 305 L 1112 295 Z Z" stroke-miterlimit="10"></path></g><g transform="translate(-14,-94) scale(1,1)"><rect fill="#ffffff" stroke="none" x="1112" y="315" width="20" height="10"></rect></g><g transform="translate(-14,-94) scale(1,1)"><path fill="none" stroke="#000000" d="M 1112 315 L 1132 315 L 1132 325 L 1112 325 L 1112 315 Z Z" stroke-miterlimit="10"></path></g><g transform="translate(-14,-94) scale(1,1)"><g><path fill="none" stroke="none"></path><text fill="#000000" stroke="none" font-family="Arial" font-size="13px" font-style="normal" font-weight="bold" text-decoration="none" x="1142" y="307.5">SearchComponent</text></g></g><g transform="translate(-14,-94) scale(1,1)"><rect fill="#C0C0C0" stroke="none" x="761" y="111" width="132" height="44" opacity="0.2"></rect></g><g transform="translate(-14,-94) scale(1,1)"><rect fill="#ffffff" stroke="none" x="754" y="104" width="132" height="44"></rect></g><g transform="translate(-14,-94) scale(1,1)"><path fill="none" stroke="#000000" d="M 754 104 L 886 104 L 886 148 L 754 148 L 754 104 Z Z" stroke-miterlimit="10"></path></g><g transform="translate(-14,-94) scale(1,1)"><rect fill="#ffffff" stroke="none" x="744" y="111" width="20" height="10"></rect></g><g transform="translate(-14,-94) scale(1,1)"><path fill="none" stroke="#000000" d="M 744 111 L 764 111 L 764 121 L 744 121 L 744 111 Z Z" stroke-miterlimit="10"></path></g><g transform="translate(-14,-94) scale(1,1)"><rect fill="#ffffff" stroke="none" x="744" y="131" width="20" height="10"></rect></g><g transform="translate(-14,-94) scale(1,1)"><path fill="none" stroke="#000000" d="M 744 131 L 764 131 L 764 141 L 744 141 L 744 131 Z Z" stroke-miterlimit="10"></path></g><g transform="translate(-14,-94) scale(1,1)"><g><path fill="none" stroke="none"></path><text fill="#000000" stroke="none" font-family="Arial" font-size="13px" font-style="normal" font-weight="bold" text-decoration="none" x="773.5" y="123.5">DomainHistogram</text></g></g><g transform="translate(-14,-94) scale(1,1)"><rect fill="#C0C0C0" stroke="none" x="1161" y="431" width="101" height="44" opacity="0.2"></rect></g><g transform="translate(-14,-94) scale(1,1)"><rect fill="#ffffff" stroke="none" x="1154" y="424" width="101" height="44"></rect></g><g transform="translate(-14,-94) scale(1,1)"><path fill="none" stroke="#000000" d="M 1154 424 L 1255 424 L 1255 468 L 1154 468 L 1154 424 Z Z" stroke-miterlimit="10"></path></g><g transform="translate(-14,-94) scale(1,1)"><rect fill="#ffffff" stroke="none" x="1144" y="431" width="20" height="10"></rect></g><g transform="translate(-14,-94) scale(1,1)"><path fill="none" stroke="#000000" d="M 1144 431 L 1164 431 L 1164 441 L 1144 441 L 1144 431 Z Z" stroke-miterlimit="10"></path></g><g transform="translate(-14,-94) scale(1,1)"><rect fill="#ffffff" stroke="none" x="1144" y="451" width="20" height="10"></rect></g><g transform="translate(-14,-94) scale(1,1)"><path fill="none" stroke="#000000" d="M 1144 451 L 1164 451 L 1164 461 L 1144 461 L 1144 451 Z Z" stroke-miterlimit="10"></path></g><g transform="translate(-14,-94) scale(1,1)"><g><path fill="none" stroke="none"></path><text fill="#000000" stroke="none" font-family="Arial" font-size="13px" font-style="normal" font-weight="bold" text-decoration="none" x="1173.5" y="443.5">DetailViewer</text></g></g><g transform="translate(-14,-94) scale(1,1)"><path fill="#C0C0C0" stroke="none" d="M 327 650.5 C 327 644.1487248 332.1487248 639 338.5 639 C 344.8512752 639 350 644.1487248 350 650.5 C 350 656.8512752 344.8512752 662 338.5 662 C 332.1487248 662 327 656.8512752 327 650.5 Z" opacity="0.2"></path></g><g transform="translate(-14,-94) scale(1,1)"><path fill="none" stroke="#000000" d="M 326.32940764038534 632.491167190867 A 11.5 11.5 0 0 1 335.67059235961466 653.508832809133" stroke-miterlimit="10"></path></g><g transform="translate(-14,-94) scale(1,1)"><path fill="#ffffff" stroke="none" d="M 323 643.5 C 323 638.8055792 326.8055792 635 331.5 635 C 336.1944208 635 340 638.8055792 340 643.5 C 340 648.1944208 336.1944208 652 331.5 652 C 326.8055792 652 323 648.1944208 323 643.5 Z"></path></g><g transform="translate(-14,-94) scale(1,1)"><path fill="none" stroke="#000000" d="M 323 643.5 C 323 638.8055792 326.8055792 635 331.5 635 C 336.1944208 635 340 638.8055792 340 643.5 C 340 648.1944208 336.1944208 652 331.5 652 C 326.8055792 652 323 648.1944208 323 643.5 Z" stroke-miterlimit="10"></path></g><g transform="translate(-14,-94) scale(1,1)"><g><path fill="none" stroke="none"></path><text fill="#000000" stroke="none" font-family="Arial" font-size="13px" font-style="normal" font-weight="bold" text-decoration="none" x="281.5" y="674.5">domainsSelected</text></g></g><g transform="translate(-14,-94) scale(1,1)"><path fill="none" stroke="#000000" d="M 231 537 L 320 636.7142857142857" stroke-miterlimit="10"></path></g><g transform="translate(-14,-94) scale(1,1)"><g><path fill="none" stroke="none"></path><text fill="#000000" stroke="none" font-family="Arial" font-size="13px" font-style="normal" font-weight="normal" text-decoration="none" x="235.5" y="582.5">+displayDomains</text></g></g><g transform="translate(-14,-94) scale(1,1)"><path fill="none" stroke="#000000" d="M 451 545 L 343 637.6666666666666" stroke-miterlimit="10"></path></g><g transform="translate(-14,-94) scale(1,1)"><g><path fill="none" stroke="none"></path><text fill="#000000" stroke="none" font-family="Arial" font-size="13px" font-style="normal" font-weight="normal" text-decoration="none" x="364.5" y="608.5">+showDomain</text></g></g><g transform="translate(-14,-94) scale(1,1)"><rect fill="#C0C0C0" stroke="none" x="1097" y="599" width="171" height="44" opacity="0.2"></rect></g><g transform="translate(-14,-94) scale(1,1)"><rect fill="#ffffff" stroke="none" x="1090" y="592" width="171" height="44"></rect></g><g transform="translate(-14,-94) scale(1,1)"><path fill="none" stroke="#000000" d="M 1090 592 L 1261 592 L 1261 636 L 1090 636 L 1090 592 Z Z" stroke-miterlimit="10"></path></g><g transform="translate(-14,-94) scale(1,1)"><rect fill="#ffffff" stroke="none" x="1080" y="599" width="20" height="10"></rect></g><g transform="translate(-14,-94) scale(1,1)"><path fill="none" stroke="#000000" d="M 1080 599 L 1100 599 L 1100 609 L 1080 609 L 1080 599 Z Z" stroke-miterlimit="10"></path></g><g transform="translate(-14,-94) scale(1,1)"><rect fill="#ffffff" stroke="none" x="1080" y="619" width="20" height="10"></rect></g><g transform="translate(-14,-94) scale(1,1)"><path fill="none" stroke="#000000" d="M 1080 619 L 1100 619 L 1100 629 L 1080 629 L 1080 619 Z Z" stroke-miterlimit="10"></path></g><g transform="translate(-14,-94) scale(1,1)"><g><path fill="none" stroke="none"></path><text fill="#000000" stroke="none" font-family="Arial" font-size="13px" font-style="normal" font-weight="bold" text-decoration="none" x="1112.5" y="611.5">RelevantArtifactsViewer</text></g></g><g transform="translate(-14,-94) scale(1,1)"><path fill="#C0C0C0" stroke="none" d="M 983.5 458.5 C 983.5 452.1487248 988.6487248 447 995 447 C 1001.3512752 447 1006.5 452.1487248 1006.5 458.5 C 1006.5 464.8512752 1001.3512752 470 995 470 C 988.6487248 470 983.5 464.8512752 983.5 458.5 Z" opacity="0.2"></path></g><g transform="translate(-14,-94) scale(1,1)"><path fill="none" stroke="#000000" d="M 983.9620804217335 440.232214457956 A 11.5 11.5 0 0 1 992.0379195782665 461.767785542044" stroke-miterlimit="10"></path></g><g transform="translate(-14,-94) scale(1,1)"><path fill="none" stroke="#000000" d="M 991.000453789142 439.89832098017496 A 11.5 11.5 0 0 1 984.999546210858 462.10167901982504" stroke-miterlimit="10"></path></g><g transform="translate(-14,-94) scale(1,1)"><path fill="none" stroke="#000000" d="M 997.0261518036344 443.8740906813413 A 11.5 11.5 0 0 1 978.9738481963656 458.1259093186587" stroke-miterlimit="10"></path></g><g transform="translate(-14,-94) scale(1,1)"><path fill="#ffffff" stroke="none" d="M 979.5 451.5 C 979.5 446.8055792 983.3055792 443 988 443 C 992.6944208 443 996.5 446.8055792 996.5 451.5 C 996.5 456.1944208 992.6944208 460 988 460 C 983.3055792 460 979.5 456.1944208 979.5 451.5 Z"></path></g><g transform="translate(-14,-94) scale(1,1)"><path fill="none" stroke="#000000" d="M 979.5 451.5 C 979.5 446.8055792 983.3055792 443 988 443 C 992.6944208 443 996.5 446.8055792 996.5 451.5 C 996.5 456.1944208 992.6944208 460 988 460 C 983.3055792 460 979.5 456.1944208 979.5 451.5 Z" stroke-miterlimit="10"></path></g><g transform="translate(-14,-94) scale(1,1)"><g><path fill="none" stroke="none"></path><text fill="#000000" stroke="none" font-family="Arial" font-size="13px" font-style="normal" font-weight="bold" text-decoration="none" x="961.5" y="482.5">concepts</text></g></g><g transform="translate(-14,-94) scale(1,1)"><path fill="none" stroke="#000000" d="M 1156 333 L 999.5 446.6875" stroke-miterlimit="10"></path></g><g transform="translate(-14,-94) scale(1,1)"><path fill="none" stroke="#000000" d="M 1143 451 L 999.5 454.1081081081081" stroke-miterlimit="10"></path></g><g transform="translate(-14,-94) scale(1,1)"><path fill="none" stroke="#000000" d="M 827 149 L 976.5 440.38461538461536" stroke-miterlimit="10"></path></g><g transform="translate(-14,-94) scale(1,1)"><g><path fill="none" stroke="none"></path><text fill="#000000" stroke="none" font-family="Arial" font-size="13px" font-style="normal" font-weight="normal" text-decoration="none" x="821.5" y="293.5">+conceptsSelected: []&lt;Artifact&gt;</text></g></g><g transform="translate(-14,-94) scale(1,1)"><path fill="none" stroke="#000000" d="M 769 458 L 976.5 454.72972972972974" stroke-miterlimit="10"></path></g><g transform="translate(-14,-94) scale(1,1)"><g><path fill="none" stroke="none"></path><text fill="#000000" stroke="none" font-family="Arial" font-size="13px" font-style="normal" font-weight="normal" text-decoration="none" x="778.5" y="447.5">+conceptsSelected: []&lt;Artifact&gt;</text></g></g><g transform="translate(-14,-94) scale(1,1)"><path fill="none" stroke="#000000" d="M 1142 591 L 997.4736842105264 463" stroke-miterlimit="10"></path></g><g transform="translate(-14,-94) scale(1,1)"><path fill="#C0C0C0" stroke="none" d="M 711.5 258.5 C 711.5 252.1487248 716.6487248 247 723 247 C 729.3512752 247 734.5 252.1487248 734.5 258.5 C 734.5 264.8512752 729.3512752 270 723 270 C 716.6487248 270 711.5 264.8512752 711.5 258.5 Z" opacity="0.2"></path></g><g transform="translate(-14,-94) scale(1,1)"><path fill="none" stroke="#000000" d="M 709.6209477434098 241.4314216151148 A 11.5 11.5 0 0 1 722.3790522565902 260.5685783848852" stroke-miterlimit="10"></path></g><g transform="translate(-14,-94) scale(1,1)"><path fill="#ffffff" stroke="none" d="M 707.5 251.5 C 707.5 246.8055792 711.3055792 243 716 243 C 720.6944208 243 724.5 246.8055792 724.5 251.5 C 724.5 256.1944208 720.6944208 260 716 260 C 711.3055792 260 707.5 256.1944208 707.5 251.5 Z"></path></g><g transform="translate(-14,-94) scale(1,1)"><path fill="none" stroke="#000000" d="M 707.5 251.5 C 707.5 246.8055792 711.3055792 243 716 243 C 720.6944208 243 724.5 246.8055792 724.5 251.5 C 724.5 256.1944208 720.6944208 260 716 260 C 711.3055792 260 707.5 256.1944208 707.5 251.5 Z" stroke-miterlimit="10"></path></g><g transform="translate(-14,-94) scale(1,1)"><g><path fill="none" stroke="none"></path><text fill="#000000" stroke="none" font-family="Arial" font-size="13px" font-style="normal" font-weight="bold" text-decoration="none" x="698.5" y="282.5">Graph</text></g></g><g transform="translate(-14,-94) scale(1,1)"><path fill="none" stroke="#000000" d="M 633 359 L 709.0526315789474 263" stroke-miterlimit="10"></path></g><g transform="translate(-14,-94) scale(1,1)"><g><path fill="none" stroke="none"></path><text fill="#000000" stroke="none" font-family="Arial" font-size="13px" font-style="normal" font-weight="normal" text-decoration="none" x="628.5" y="307.5">+getGraph</text></g></g><g transform="translate(-14,-94) scale(1,1)"><path fill="none" stroke="#000000" d="M 799 149 L 727.5 243.33333333333334" stroke-miterlimit="10"></path></g></g></svg>