<svg version="1.1" xmlns="http://www.w3.org/2000/svg" xmlns:xlink="http://www.w3.org/1999/xlink" width="1274" height="456"><defs></defs><g><g transform="translate(-94,-190) scale(1,1)"><rect fill="#C0C0C0" stroke="none" x="519" y="207" width="266" height="155" opacity="0.2"></rect></g><g transform="translate(-94,-190) scale(1,1)"><rect fill="#ffffff" stroke="none" x="512" y="200" width="266" height="155"></rect></g><g transform="translate(-94,-190) scale(1,1)"><path fill="none" stroke="#000000" d="M 512 200 L 778 200 L 778 355 L 512 355 L 512 200 Z Z" stroke-miterlimit="10"></path></g><g transform="translate(-94,-190) scale(1,1)"><path fill="none" stroke="#000000" d="M 512 225 L 778 225" stroke-miterlimit="10"></path></g><g transform="translate(-94,-190) scale(1,1)"><path fill="none" stroke="#000000" d="M 512 235 L 778 235" stroke-miterlimit="10"></path></g><g transform="translate(-94,-190) scale(1,1)"><path fill="none" stroke="#000000" d="M 512 333 L 778 333" stroke-miterlimit="10"></path></g><g transform="translate(-94,-190) scale(1,1)"><g><path fill="none" stroke="none"></path><text fill="#000000" stroke="none" font-family="Arial" font-size="13px" font-style="normal" font-weight="bold" text-decoration="none" x="599" y="219.5">GraphVisualizer</text></g></g><g transform="translate(-94,-190) scale(1,1)"><g><path fill="none" stroke="none"></path><text fill="#000000" stroke="none" font-family="Arial" font-size="13px" font-style="normal" font-weight="normal" text-decoration="none" x="517" y="252.5">+setLayout(layout: GraphLayout)</text></g></g><g transform="translate(-94,-190) scale(1,1)"><g><path fill="none" stroke="none"></path><text fill="#000000" stroke="none" font-family="Arial" font-size="13px" font-style="normal" font-weight="normal" text-decoration="none" x="517" y="267.5">+showSubgraph(concepts: []&lt;Artefact&gt;)</text></g></g><g transform="translate(-94,-190) scale(1,1)"><g><path fill="none" stroke="none"></path><text fill="#000000" stroke="none" font-family="Arial" font-size="13px" font-style="normal" font-weight="normal" text-decoration="none" x="517" y="282.5">+showDomain(clusters: []&lt;ConceptCluster&gt;)</text></g></g><g transform="translate(-94,-190) scale(1,1)"><g><path fill="none" stroke="none"></path><text fill="#000000" stroke="none" font-family="Arial" font-size="13px" font-style="normal" font-weight="normal" text-decoration="none" x="517" y="297.5">#conceptsSelected(): []&lt;Artefact&gt;</text></g></g><g transform="translate(-94,-190) scale(1,1)"><g><path fill="none" stroke="none"></path><text fill="#000000" stroke="none" font-family="Arial" font-size="13px" font-style="normal" font-weight="normal" text-decoration="none" x="517" y="312.5">#graphUpdated(): Graph</text></g></g><g transform="translate(-94,-190) scale(1,1)"><g><path fill="none" stroke="none"></path><text fill="#000000" stroke="none" font-family="Arial" font-size="13px" font-style="normal" font-weight="normal" text-decoration="none" x="517" y="327.5">+showGraph(g: Graph)</text></g></g><g transform="translate(-94,-190) scale(1,1)"><rect fill="#C0C0C0" stroke="none" x="1071" y="247" width="294" height="82" opacity="0.2"></rect></g><g transform="translate(-94,-190) scale(1,1)"><rect fill="#ffffff" stroke="none" x="1064" y="240" width="294" height="82"></rect></g><g transform="translate(-94,-190) scale(1,1)"><path fill="none" stroke="#000000" d="M 1064 240 L 1358 240 L 1358 322 L 1064 322 L 1064 240 Z Z" stroke-miterlimit="10"></path></g><g transform="translate(-94,-190) scale(1,1)"><path fill="none" stroke="#000000" d="M 1064 265 L 1358 265" stroke-miterlimit="10"></path></g><g transform="translate(-94,-190) scale(1,1)"><path fill="none" stroke="#000000" d="M 1064 275 L 1358 275" stroke-miterlimit="10"></path></g><g transform="translate(-94,-190) scale(1,1)"><path fill="none" stroke="#000000" d="M 1064 313 L 1358 313" stroke-miterlimit="10"></path></g><g transform="translate(-94,-190) scale(1,1)"><g><path fill="none" stroke="none"></path><text fill="#000000" stroke="none" font-family="Arial" font-size="13px" font-style="normal" font-weight="bold" text-decoration="none" x="1165" y="259.5">DomainSelector</text></g></g><g transform="translate(-94,-190) scale(1,1)"><g><path fill="none" stroke="none"></path><text fill="#000000" stroke="none" font-family="Arial" font-size="13px" font-style="normal" font-weight="normal" text-decoration="none" x="1069" y="292.5">+displayDomains(domains: []&lt;ConceptCluster&gt;)</text></g></g><g transform="translate(-94,-190) scale(1,1)"><g><path fill="none" stroke="none"></path><text fill="#000000" stroke="none" font-family="Arial" font-size="13px" font-style="normal" font-weight="normal" text-decoration="none" x="1069" y="307.5">#domainsSelected(): []&lt;ConceptCluster&gt;</text></g></g><g transform="translate(-94,-190) scale(1,1)"><rect fill="#C0C0C0" stroke="none" x="823" y="247" width="187" height="70" opacity="0.2"></rect></g><g transform="translate(-94,-190) scale(1,1)"><rect fill="#ffffff" stroke="none" x="816" y="240" width="187" height="70"></rect></g><g transform="translate(-94,-190) scale(1,1)"><path fill="none" stroke="#000000" d="M 816 240 L 1003 240 L 1003 310 L 816 310 L 816 240 Z Z" stroke-miterlimit="10"></path></g><g transform="translate(-94,-190) scale(1,1)"><path fill="none" stroke="#000000" d="M 816 278 L 1003 278" stroke-miterlimit="10"></path></g><g transform="translate(-94,-190) scale(1,1)"><path fill="none" stroke="#000000" d="M 816 301 L 1003 301" stroke-miterlimit="10"></path></g><g transform="translate(-94,-190) scale(1,1)"><g><path fill="none" stroke="none"></path><text fill="#000000" stroke="none" font-family="Arial" font-size="13px" font-style="normal" font-weight="normal" text-decoration="none" x="885.5" y="257.5">«signal»</text></g></g><g transform="translate(-94,-190) scale(1,1)"><g><path fill="none" stroke="none"></path><text fill="#000000" stroke="none" font-family="Arial" font-size="13px" font-style="normal" font-weight="bold" text-decoration="none" x="859.5" y="272.5">domainsChanged</text></g></g><g transform="translate(-94,-190) scale(1,1)"><g><path fill="none" stroke="none"></path><text fill="#000000" stroke="none" font-family="Arial" font-size="13px" font-style="normal" font-weight="normal" text-decoration="none" x="821" y="295.5">+domains: []&lt;ConceptCluster&gt;</text></g></g><g transform="translate(-94,-190) scale(1,1)"><path fill="none" stroke="#000000" d="M 1063 278 L 1004 277" stroke-miterlimit="10"></path></g><g transform="translate(-94,-190) scale(1,1)"><path fill="none" stroke="#000000" d="M 1014.2325529497012 272.96331074622276 L 1004 277 L 1014.089877924473 281.3811372346954" stroke-miterlimit="10"></path></g><g transform="translate(-94,-190) scale(1,1)"><path fill="none" stroke="#000000" d="M 815 276 L 779 276" stroke-miterlimit="10"></path></g><g transform="translate(-94,-190) scale(1,1)"><path fill="none" stroke="#000000" d="M 789.1626748576241 271.790482243984 L 779 276 L 789.1626748576241 280.209517756016" stroke-miterlimit="10"></path></g><g transform="translate(-94,-190) scale(1,1)"><rect fill="#C0C0C0" stroke="none" x="599" y="463" width="111" height="70" opacity="0.2"></rect></g><g transform="translate(-94,-190) scale(1,1)"><rect fill="#ffffff" stroke="none" x="592" y="456" width="111" height="70"></rect></g><g transform="translate(-94,-190) scale(1,1)"><path fill="none" stroke="#000000" d="M 592 456 L 703 456 L 703 526 L 592 526 L 592 456 Z Z" stroke-miterlimit="10"></path></g><g transform="translate(-94,-190) scale(1,1)"><path fill="none" stroke="#000000" d="M 592 494 L 703 494" stroke-miterlimit="10"></path></g><g transform="translate(-94,-190) scale(1,1)"><path fill="none" stroke="#000000" d="M 592 517 L 703 517" stroke-miterlimit="10"></path></g><g transform="translate(-94,-190) scale(1,1)"><g><path fill="none" stroke="none"></path><text fill="#000000" stroke="none" font-family="Arial" font-size="13px" font-style="normal" font-weight="normal" text-decoration="none" x="623.5" y="473.5">«signal»</text></g></g><g transform="translate(-94,-190) scale(1,1)"><g><path fill="none" stroke="none"></path><text fill="#000000" stroke="none" font-family="Arial" font-size="13px" font-style="normal" font-weight="bold" text-decoration="none" x="606" y="488.5">graphChanged</text></g></g><g transform="translate(-94,-190) scale(1,1)"><g><path fill="none" stroke="none"></path><text fill="#000000" stroke="none" font-family="Arial" font-size="13px" font-style="normal" font-weight="normal" text-decoration="none" x="597" y="511.5">+g: Graph</text></g></g><g transform="translate(-94,-190) scale(1,1)"><path fill="none" stroke="#000000" d="M 646 356 L 647 455" stroke-miterlimit="10"></path></g><g transform="translate(-94,-190) scale(1,1)"><path fill="none" stroke="#000000" d="M 642.6880489320401 444.88036176597603 L 647 455 L 651.1066549781341 444.795325341268" stroke-miterlimit="10"></path></g><g transform="translate(-94,-190) scale(1,1)"><rect fill="#C0C0C0" stroke="none" x="399" y="447" width="147" height="70" opacity="0.2"></rect></g><g transform="translate(-94,-190) scale(1,1)"><rect fill="#ffffff" stroke="none" x="392" y="440" width="147" height="70"></rect></g><g transform="translate(-94,-190) scale(1,1)"><path fill="none" stroke="#000000" d="M 392 440 L 539 440 L 539 510 L 392 510 L 392 440 Z Z" stroke-miterlimit="10"></path></g><g transform="translate(-94,-190) scale(1,1)"><path fill="none" stroke="#000000" d="M 392 478 L 539 478" stroke-miterlimit="10"></path></g><g transform="translate(-94,-190) scale(1,1)"><path fill="none" stroke="#000000" d="M 392 501 L 539 501" stroke-miterlimit="10"></path></g><g transform="translate(-94,-190) scale(1,1)"><g><path fill="none" stroke="none"></path><text fill="#000000" stroke="none" font-family="Arial" font-size="13px" font-style="normal" font-weight="normal" text-decoration="none" x="441.5" y="457.5">«signal»</text></g></g><g transform="translate(-94,-190) scale(1,1)"><g><path fill="none" stroke="none"></path><text fill="#000000" stroke="none" font-family="Arial" font-size="13px" font-style="normal" font-weight="bold" text-decoration="none" x="413.5" y="472.5">conceptsChanged</text></g></g><g transform="translate(-94,-190) scale(1,1)"><g><path fill="none" stroke="none"></path><text fill="#000000" stroke="none" font-family="Arial" font-size="13px" font-style="normal" font-weight="normal" text-decoration="none" x="397" y="495.5">+concepts: []&lt;Artefact&gt;</text></g></g><g transform="translate(-94,-190) scale(1,1)"><path fill="none" stroke="#000000" d="M 573 356 L 498 439" stroke-miterlimit="10"></path></g><g transform="translate(-94,-190) scale(1,1)"><path fill="none" stroke="#000000" d="M 501.69022466910997 428.6374596796204 L 498 439 L 507.9368054184889 434.2819603567701" stroke-miterlimit="10"></path></g><g transform="translate(-94,-190) scale(1,1)"><path fill="none" stroke="#000000" d="M 498 439 L 573 356" stroke-miterlimit="10"></path></g><g transform="translate(-94,-190) scale(1,1)"><path fill="none" stroke="#000000" d="M 569.30977533089 366.3625403203796 L 573 356 L 563.0631945815111 360.7180396432299" stroke-miterlimit="10"></path></g><g transform="translate(-94,-190) scale(1,1)"><rect fill="#C0C0C0" stroke="none" x="615" y="599" width="73" height="44" opacity="0.2"></rect></g><g transform="translate(-94,-190) scale(1,1)"><rect fill="#ffffff" stroke="none" x="608" y="592" width="73" height="44"></rect></g><g transform="translate(-94,-190) scale(1,1)"><path fill="none" stroke="#000000" d="M 608 592 L 681 592 L 681 636 L 608 636 L 608 592 Z Z" stroke-miterlimit="10"></path></g><g transform="translate(-94,-190) scale(1,1)"><path fill="none" stroke="#000000" d="M 608 617 L 681 617" stroke-miterlimit="10"></path></g><g transform="translate(-94,-190) scale(1,1)"><path fill="none" stroke="#000000" d="M 608 627 L 681 627" stroke-miterlimit="10"></path></g><g transform="translate(-94,-190) scale(1,1)"><g><path fill="none" stroke="none"></path><text fill="#000000" stroke="none" font-family="Arial" font-size="13px" font-style="normal" font-weight="bold" text-decoration="none" x="615" y="611.5">Histogram</text></g></g><g transform="translate(-94,-190) scale(1,1)"><path fill="none" stroke="#000000" d="M 646 527 L 645 591" stroke-miterlimit="10"></path></g><g transform="translate(-94,-190) scale(1,1)"><path fill="none" stroke="#000000" d="M 640.949768421496 580.7727997887746 L 645 591 L 649.3677764073739 580.9043311635539" stroke-miterlimit="10"></path></g><g transform="translate(-94,-190) scale(1,1)"><path fill="none" stroke="#000000" d="M 614 591 L 511 511" stroke-miterlimit="10"></path></g><g transform="translate(-94,-190) scale(1,1)"><path fill="none" stroke="#000000" d="M 521.6082827708462 513.9093533050776 L 511 511 L 516.443965233122 520.5584121348977" stroke-miterlimit="10"></path></g><g transform="translate(-94,-190) scale(1,1)"><rect fill="#C0C0C0" stroke="none" x="111" y="543" width="112" height="44" opacity="0.2"></rect></g><g transform="translate(-94,-190) scale(1,1)"><rect fill="#ffffff" stroke="none" x="104" y="536" width="112" height="44"></rect></g><g transform="translate(-94,-190) scale(1,1)"><path fill="none" stroke="#000000" d="M 104 536 L 216 536 L 216 580 L 104 580 L 104 536 Z Z" stroke-miterlimit="10"></path></g><g transform="translate(-94,-190) scale(1,1)"><path fill="none" stroke="#000000" d="M 104 561 L 216 561" stroke-miterlimit="10"></path></g><g transform="translate(-94,-190) scale(1,1)"><path fill="none" stroke="#000000" d="M 104 571 L 216 571" stroke-miterlimit="10"></path></g><g transform="translate(-94,-190) scale(1,1)"><g><path fill="none" stroke="none"></path><text fill="#000000" stroke="none" font-family="Arial" font-size="13px" font-style="normal" font-weight="bold" text-decoration="none" x="114" y="555.5">relevantArtifacts</text></g></g><g transform="translate(-94,-190) scale(1,1)"><rect fill="#C0C0C0" stroke="none" x="111" y="463" width="78" height="44" opacity="0.2"></rect></g><g transform="translate(-94,-190) scale(1,1)"><rect fill="#ffffff" stroke="none" x="104" y="456" width="78" height="44"></rect></g><g transform="translate(-94,-190) scale(1,1)"><path fill="none" stroke="#000000" d="M 104 456 L 182 456 L 182 500 L 104 500 L 104 456 Z Z" stroke-miterlimit="10"></path></g><g transform="translate(-94,-190) scale(1,1)"><path fill="none" stroke="#000000" d="M 104 481 L 182 481" stroke-miterlimit="10"></path></g><g transform="translate(-94,-190) scale(1,1)"><path fill="none" stroke="#000000" d="M 104 491 L 182 491" stroke-miterlimit="10"></path></g><g transform="translate(-94,-190) scale(1,1)"><g><path fill="none" stroke="none"></path><text fill="#000000" stroke="none" font-family="Arial" font-size="13px" font-style="normal" font-weight="bold" text-decoration="none" x="112.5" y="475.5">DetailView</text></g></g><g transform="translate(-94,-190) scale(1,1)"><rect fill="#C0C0C0" stroke="none" x="111" y="383" width="86" height="44" opacity="0.2"></rect></g><g transform="translate(-94,-190) scale(1,1)"><rect fill="#ffffff" stroke="none" x="104" y="376" width="86" height="44"></rect></g><g transform="translate(-94,-190) scale(1,1)"><path fill="none" stroke="#000000" d="M 104 376 L 190 376 L 190 420 L 104 420 L 104 376 Z Z" stroke-miterlimit="10"></path></g><g transform="translate(-94,-190) scale(1,1)"><path fill="none" stroke="#000000" d="M 104 401 L 190 401" stroke-miterlimit="10"></path></g><g transform="translate(-94,-190) scale(1,1)"><path fill="none" stroke="#000000" d="M 104 411 L 190 411" stroke-miterlimit="10"></path></g><g transform="translate(-94,-190) scale(1,1)"><g><path fill="none" stroke="none"></path><text fill="#000000" stroke="none" font-family="Arial" font-size="13px" font-style="normal" font-weight="bold" text-decoration="none" x="112.5" y="395.5">SearchView</text></g></g><g transform="translate(-94,-190) scale(1,1)"><path fill="none" stroke="#000000" d="M 391 457 L 191 409" stroke-miterlimit="10"></path></g><g transform="translate(-94,-190) scale(1,1)"><path fill="none" stroke="#000000" d="M 201.86444357292913 407.27841182315905 L 191 409 L 199.89966839849163 415.46497504998194" stroke-miterlimit="10"></path></g><g transform="translate(-94,-190) scale(1,1)"><path fill="none" stroke="#000000" d="M 391 476 L 183 478" stroke-miterlimit="10"></path></g><g transform="translate(-94,-190) scale(1,1)"><path fill="none" stroke="#000000" d="M 193.1217308307131 473.69296331678123 L 183 478 L 193.20267935326538 482.111609662219" stroke-miterlimit="10"></path></g><g transform="translate(-94,-190) scale(1,1)"><path fill="none" stroke="#000000" d="M 391 495 L 217 542" stroke-miterlimit="10"></path></g><g transform="translate(-94,-190) scale(1,1)"><path fill="none" stroke="#000000" d="M 225.71334511472904 535.2860133369489 L 217 542 L 227.90877091568302 543.4137599192042" stroke-miterlimit="10"></path></g></g></svg>